<svg xmlns="http://www.w3.org/2000/svg" viewBox="0 0 512 512" width="100%" height="100%">
  <defs>
    <linearGradient id="neureutherGradient" x1="0%" y1="0%" x2="100%" y2="100%">
      <stop offset="0%" stop-color="#FDA172" />
      <stop offset="100%" stop-color="#FF6B6B" />
    </linearGradient>
    
    <filter id="softShadow" x="-10%" y="-10%" width="130%" height="130%">
      <feDropShadow dx="0" dy="12" stdDeviation="10" flood-color="#2D2B2A" flood-opacity="0.15" />
    </filter>
  </defs>

  <rect width="512" height="512" rx="112" fill="url(#neureutherGradient)" />

  <circle cx="256" cy="256" r="210" fill="#FFFFFF" opacity="0.12" />

  <g filter="url(#softShadow)">
    <path d="M 150,260 
             L 236,174 c 11,-11 29,-11 40,0 
             l 86,86 
             c 12,12 8,32 -9,32 
             L 330,292 
             v 76 c 0,18 -14,32 -32,32 
             H 214 c -18,0 -32,-14 -32,-32 
             v -76 
             H 159 
             c -17,0 -21,-20 -9,-32 z" 
          fill="#FDF7F2" />
          
    <rect x="232" y="310" width="48" height="90" rx="24" fill="#2D2B2A" opacity="0.08" />
    
    <path d="M 330,140 
             c 0,20 15,35 35,35 
             c -20,0 -35,15 -35,35 
             c 0,-20 -15,-35 -35,-35 
             c 20,0 35,-15 35,-35 z" 
          fill="#FDF7F2" />
          
    <path d="M 175,190 
             c 0,10 8,18 18,18 
             c -10,0 -18,8 -18,18 
             c 0,-10 -8,-18 -18,-18 
             c 10,0 18,-8 18,-18 z" 
          fill="#FDF7F2" opacity="0.8" />
  </g>
</svg>